<?xml version="1.0" encoding="UTF-8" standalone="no"?>
<svg width="130px" height="130px" viewBox="0 0 130 130" version="1.1" xmlns="http://www.w3.org/2000/svg" xmlns:xlink="http://www.w3.org/1999/xlink">
    <!-- Generator: Sketch 39.1 (31720) - http://www.bohemiancoding.com/sketch -->
    <title>Hyperloop Image Placeholder</title>
    <desc>Created with Sketch.</desc>
    <defs></defs>
    <g id="Welcome" stroke="none" stroke-width="1" fill="none" fill-rule="evenodd">
        <g id="Desktop-HD" transform="translate(-785.000000, -2408.000000)" fill="#000000">
            <g id="/-CASE-STUDIES" transform="translate(255.000000, 1014.000000)">
                <g id="Hyperloop" transform="translate(0.000000, 1309.000000)">
                    <path d="M574.713453,85 L615.286547,85 C628.161584,85 634.5991,85 641.52881,87.1911582 C649.094898,89.9449911 655.055004,95.9050933 657.808842,103.471187 C660,110.4009 660,116.838419 660,129.713453 L660,170.286547 C660,183.161584 660,189.5991 657.808842,196.52881 C655.055004,204.094912 649.094912,210.055004 641.52881,212.808842 C634.5991,215 628.161584,215 615.286547,215 L574.713453,215 C561.838419,215 555.4009,215 548.471194,212.808842 C540.905098,210.055004 534.944994,204.094912 532.191159,196.52881 C530,189.5991 530,183.161584 530,170.286547 L530,129.713453 C530,116.838419 530,110.4009 532.191159,103.471194 C534.944993,95.9050964 540.905098,89.9449911 548.471195,87.1911582 C555.4009,85 561.838419,85 574.713453,85 L574.713453,85" id="Hyperloop-Image-Placeholder"></path>
                </g>
            </g>
        </g>
    </g>
</svg>